<?xml version="1.0" encoding="UTF-8" standalone="no"?>
<!-- Created with Inkscape (http://www.inkscape.org/) -->

<svg
   xmlns:dc="http://purl.org/dc/elements/1.1/"
   xmlns:cc="http://creativecommons.org/ns#"
   xmlns:rdf="http://www.w3.org/1999/02/22-rdf-syntax-ns#"
   xmlns:svg="http://www.w3.org/2000/svg"
   xmlns="http://www.w3.org/2000/svg"
   xmlns:xlink="http://www.w3.org/1999/xlink"
   xmlns:sodipodi="http://sodipodi.sourceforge.net/DTD/sodipodi-0.dtd"
   xmlns:inkscape="http://www.inkscape.org/namespaces/inkscape"
   version="1.0"
   x="0.00000000"
   y="0.00000000"
   width="782.15588"
   height="730.92639"
   id="svg2"
   sodipodi:version="0.32"
   inkscape:version="0.48.2 r9819"
   sodipodi:docname="Brosen_windrose.svg"
   inkscape:label="napisy">
  <metadata
     id="metadata36">
    <rdf:RDF>
      <cc:Work
         rdf:about="">
        <dc:format>image/svg+xml</dc:format>
        <dc:type
           rdf:resource="http://purl.org/dc/dcmitype/StillImage" />
      </cc:Work>
    </rdf:RDF>
  </metadata>
  <sodipodi:namedview
     inkscape:window-height="709"
     inkscape:window-width="1024"
     inkscape:pageshadow="2"
     inkscape:pageopacity="0.0"
     borderopacity="1.0"
     bordercolor="#666666"
     pagecolor="#ffffff"
     id="base"
     inkscape:zoom="0.5887836"
     inkscape:cx="230.08941"
     inkscape:cy="368.51413"
     inkscape:window-x="0"
     inkscape:window-y="27"
     inkscape:current-layer="layer6"
     showgrid="true"
     inkscape:window-maximized="1"
     fit-margin-top="0"
     fit-margin-left="0"
     fit-margin-right="0"
     fit-margin-bottom="0" />
  <defs
     id="defs4" />
  <g
     inkscape:groupmode="layer"
     id="layer7"
     inkscape:label="p4"
     style="display:inline"
     transform="translate(92.407009,61.718524)" />
  <g
     style="display:inline"
     id="layer3"
     transform="translate(92.407009,61.718524)" />
  <g
     style="display:inline"
     id="layer4"
     transform="translate(92.407009,61.718524)" />
  <g
     inkscape:groupmode="layer"
     id="layer1"
     inkscape:label="p3"
     style="display:inline"
     transform="translate(92.407009,61.718524)" />
  <g
     inkscape:groupmode="layer"
     id="layer6"
     inkscape:label="p2"
     style="display:inline"
     transform="translate(92.407009,61.718524)">
    <path
       transform="translate(181.7306,-10.190502)"
       style="fill:none;stroke:#000000;stroke-width:2.20000005;stroke-miterlimit:4;stroke-opacity:1;stroke-dashoffset:0.5"
       d="m 438.19154,312.11835 c 0,175.87682 -142.57633,318.45315 -318.45315,318.45315 -175.876823,0 -318.45316,-142.57633 -318.45316,-318.45315 0,-175.87682 142.576337,-318.4531583 318.45316,-318.4531583 175.87682,0 318.45315,142.5763383 318.45315,318.4531583 z"
       id="path3066"
       inkscape:connector-curvature="0" />
    <text
       xml:space="preserve"
       style="font-size:18px;font-style:normal;font-variant:normal;font-weight:500;font-stretch:normal;line-height:125%;letter-spacing:0px;word-spacing:0px;fill:#000000;fill-opacity:1;stroke:none;font-family:Century Schoolbook L;-inkscape-font-specification:Century Schoolbook L Medium"
       id="text3950"
       sodipodi:linespacing="125%"><textPath
         xlink:href="#path3066"
         id="textPath3066"
         style="font-style:normal;font-variant:normal;font-weight:normal;font-stretch:normal;letter-spacing:7.5px;word-spacing:100px;baseline-shift:baseline;font-family:FreeSans;-inkscape-font-specification:FreeSans"><tspan
           style="font-style:normal;font-variant:normal;font-weight:normal;font-stretch:normal;letter-spacing:7.5px;font-family:FreeSans;-inkscape-font-specification:FreeSans"
           id="tspan3952"
           dx="0">I I I I I I I I I I I I I I I I I I</tspan></textPath></text>
    <flowRoot
       xml:space="preserve"
       id="flowRoot3954"
       style="font-size:18px;font-style:normal;font-variant:normal;font-weight:500;font-stretch:normal;line-height:125%;letter-spacing:0px;word-spacing:0px;fill:#000000;fill-opacity:1;stroke:none;font-family:Century Schoolbook L;-inkscape-font-specification:Century Schoolbook L Medium"><flowRegion
         id="flowRegion3956"><rect
           id="rect3958"
           width="349.87387"
           height="157.95277"
           x="-492.54089"
           y="272.20554" /></flowRegion><flowPara
         id="flowPara3960" /></flowRoot>    <flowRoot
       xml:space="preserve"
       id="flowRoot3069"
       style="font-size:18px;font-style:normal;font-variant:normal;font-weight:500;font-stretch:normal;line-height:125%;letter-spacing:0px;word-spacing:0px;fill:#000000;fill-opacity:1;stroke:none;font-family:Century Schoolbook L;-inkscape-font-specification:Century Schoolbook L Medium"><flowRegion
         id="flowRegion3071"><rect
           id="rect3073"
           width="154.55594"
           height="154.55594"
           x="-258.15936"
           y="105.76069" /></flowRegion><flowPara
         id="flowPara3075" /></flowRoot>    <text
       xml:space="preserve"
       style="font-size:18px;font-style:normal;font-variant:normal;font-weight:500;font-stretch:normal;line-height:125%;letter-spacing:0px;word-spacing:0px;fill:#000000;fill-opacity:1;stroke:none;font-family:Century Schoolbook L;-inkscape-font-specification:Century Schoolbook L Medium"
       x="292.89587"
       y="-41.866524"
       id="text3071"
       sodipodi:linespacing="125%"><tspan
         sodipodi:role="line"
         id="tspan3073"
         x="292.89587"
         y="-41.866524"
         style="font-size:28px;font-style:normal;font-variant:normal;font-weight:normal;font-stretch:normal;font-family:FreeSans;-inkscape-font-specification:FreeSans">0째</tspan></text>
    <text
       sodipodi:linespacing="125%"
       id="text3075"
       y="668.56384"
       x="273.19745"
       style="font-size:18px;font-style:normal;font-variant:normal;font-weight:500;font-stretch:normal;line-height:125%;letter-spacing:0px;word-spacing:0px;fill:#000000;fill-opacity:1;stroke:none;font-family:Century Schoolbook L;-inkscape-font-specification:Century Schoolbook L Medium"
       xml:space="preserve"><tspan
         style="font-size:28px;font-style:normal;font-variant:normal;font-weight:normal;font-stretch:normal;font-family:FreeSans;-inkscape-font-specification:FreeSans"
         y="668.56384"
         x="273.19745"
         id="tspan3077"
         sodipodi:role="line">180째</tspan></text>
    <text
       xml:space="preserve"
       style="font-size:18px;font-style:normal;font-variant:normal;font-weight:500;font-stretch:normal;line-height:125%;letter-spacing:0px;word-spacing:0px;fill:#000000;fill-opacity:1;stroke:none;font-family:Century Schoolbook L;-inkscape-font-specification:Century Schoolbook L Medium"
       x="645.86499"
       y="314.19788"
       id="text3079"
       sodipodi:linespacing="125%"><tspan
         sodipodi:role="line"
         id="tspan3081"
         x="645.86499"
         y="314.19788"
         style="font-size:28px;font-style:normal;font-variant:normal;font-weight:normal;font-stretch:normal;font-family:FreeSans;-inkscape-font-specification:FreeSans">90째</tspan></text>
    <text
       xml:space="preserve"
       style="font-size:18px;font-style:normal;font-variant:normal;font-weight:500;font-stretch:normal;line-height:125%;letter-spacing:0px;word-spacing:0px;fill:#000000;fill-opacity:1;stroke:none;font-family:Century Schoolbook L;-inkscape-font-specification:Century Schoolbook L Medium"
       x="-93.359009"
       y="309.10263"
       id="text3095"
       sodipodi:linespacing="125%"><tspan
         sodipodi:role="line"
         id="tspan3097"
         x="-93.359009"
         y="309.10263"
         style="font-size:28px;font-style:normal;font-variant:normal;font-weight:normal;font-stretch:normal;font-family:FreeSans;-inkscape-font-specification:FreeSans">270째</tspan></text>
  </g>
  <g
     inkscape:groupmode="layer"
     id="layer2"
     inkscape:label="podstawowa"
     style="display:inline"
     transform="translate(92.407009,61.718524)" />
  <g
     inkscape:groupmode="layer"
     id="layer5"
     inkscape:label="napisy"
     style="display:inline"
     transform="translate(92.407009,61.718524)">
    <g
       id="g1461"
       inkscape:label="p4"
       style="display:inline"
       transform="translate(1.182297,-1.05875)" />
    <g
       style="display:inline"
       id="g1463"
       transform="translate(1.182297,-1.05875)" />
    <g
       style="display:inline"
       id="g1465"
       transform="translate(1.182297,-1.05875)" />
    <g
       id="g1467"
       inkscape:label="p3"
       style="display:inline"
       transform="translate(1.182297,-1.05875)" />
    <g
       id="g1469"
       inkscape:label="p2"
       style="display:inline"
       transform="translate(1.182297,-1.05875)" />
    <g
       id="g1471"
       inkscape:label="podstawowa"
       style="display:inline"
       transform="translate(1.182297,-1.05875)" />
    <g
       id="g3115"
       transform="translate(0.49260306,1.2341022)">
      <path
         transform="matrix(1.127129,0,0,1.127129,95.65651,171.7962)"
         d="m 307.41345,113.40358 c 0,66.12969 -53.6087,119.73839 -119.73839,119.73839 -66.12968,0 -119.738384,-53.6087 -119.738384,-119.73839 0,-66.129686 53.608704,-119.7383883 119.738384,-119.7383883 66.12969,0 119.73839,53.6087023 119.73839,119.7383883 z"
         sodipodi:ry="119.73839"
         sodipodi:rx="119.73839"
         sodipodi:cy="113.40358"
         sodipodi:cx="187.67506"
         id="path2408"
         style="fill:none;stroke:#000000;stroke-width:0.88720989;stroke-linecap:square;stroke-linejoin:miter;stroke-miterlimit:4;stroke-opacity:1;stroke-dasharray:none;stroke-dashoffset:0;display:inline"
         sodipodi:type="arc" />
      <g
         transform="matrix(0.695009,0,0,0.683713,94.00027,94.69452)"
         id="g2362"
         style="display:inline">
        <path
           id="path8773"
           style="fill:#c2c2c2;fill-opacity:1;fill-rule:evenodd;stroke:#c2c2c2;stroke-width:1.0000006;stroke-linecap:square;stroke-linejoin:miter;stroke-miterlimit:4;stroke-opacity:1;stroke-dasharray:none;display:inline"
           d="m 264.65488,281.35479 42.89855,17.76913 -0.0148,0.006 L 83.172594,392.06566 264.65488,281.35479"
           inkscape:connector-curvature="0" />
        <path
           id="path8775"
           style="fill:#999999;fill-opacity:1;fill-rule:evenodd;stroke:#999999;stroke-width:1.0000006;stroke-linecap:square;stroke-linejoin:miter;stroke-miterlimit:4;stroke-opacity:1;stroke-dasharray:none;display:inline"
           d="m 290.16697,342.94635 17.76913,-42.89855 -0.0147,0.006 -224.366079,92.93563 206.611699,-50.04319"
           inkscape:connector-curvature="0" />
        <path
           id="path8779"
           style="fill:#e1e1e1;fill-opacity:1;fill-rule:evenodd;stroke:#c2c2c2;stroke-width:1.0000006;stroke-linecap:square;stroke-linejoin:miter;stroke-miterlimit:4;stroke-opacity:1;stroke-dasharray:none;display:inline"
           d="m 351.75849,317.43427 -42.89855,-17.76913 0.0148,-0.006 224.36608,-92.93563 -181.48229,110.71087"
           inkscape:connector-curvature="0" />
        <path
           id="path8787"
           style="fill:#c2c2c2;fill-opacity:1;fill-rule:evenodd;stroke:#c2c2c2;stroke-width:1.0000006;stroke-linecap:square;stroke-linejoin:miter;stroke-miterlimit:4;stroke-opacity:1;stroke-dasharray:none;display:inline"
           d="m 290.16693,342.94611 17.76913,-42.89855 0.006,0.0148 L 400.8778,524.4284 290.16693,342.94611"
           inkscape:connector-curvature="0" />
        <path
           id="path8789"
           style="fill:#999999;fill-opacity:1;fill-rule:evenodd;stroke:#999999;stroke-width:1.0000006;stroke-linecap:square;stroke-linejoin:miter;stroke-miterlimit:4;stroke-opacity:1;stroke-dasharray:none;display:inline"
           d="m 351.75849,317.43402 -42.89855,-17.76913 0.006,0.0147 92.93563,224.36608 -50.04319,-206.6117"
           inkscape:connector-curvature="0" />
        <path
           id="path8793"
           style="fill:#e1e1e1;fill-opacity:1;fill-rule:evenodd;stroke:#c2c2c2;stroke-width:1.0000006;stroke-linecap:square;stroke-linejoin:miter;stroke-miterlimit:4;stroke-opacity:1;stroke-dasharray:none;display:inline"
           d="m 326.24641,255.8425 -17.76913,42.89855 -0.006,-0.0148 L 215.53554,74.360214 326.24641,255.8425"
           inkscape:connector-curvature="0" />
        <path
           id="path1397"
           style="fill:#e1e1e1;fill-opacity:1;fill-rule:evenodd;stroke:#c2c2c2;stroke-width:1.0000006;stroke-linecap:square;stroke-linejoin:miter;stroke-miterlimit:4;stroke-opacity:1;stroke-dasharray:none;display:inline"
           d="m 264.65485,281.3546 42.89855,17.76913 -0.0148,0.006 L 83.172563,392.06547 264.65485,281.3546"
           inkscape:connector-curvature="0" />
        <path
           id="path1405"
           style="fill:#e1e1e1;fill-opacity:1;fill-rule:evenodd;stroke:#c2c2c2;stroke-width:1.0000006;stroke-linecap:square;stroke-linejoin:miter;stroke-miterlimit:4;stroke-opacity:1;stroke-dasharray:none;display:inline"
           d="m 290.16693,342.94637 17.76913,-42.89855 0.006,0.0148 92.93563,224.36608 -110.71087,-181.48229"
           inkscape:connector-curvature="0" />
        <g
           id="g2356">
          <path
             d="m 326.2464,255.84271 -17.76913,42.89855 0.0148,-0.006 224.36608,-92.93563 -206.6117,50.04319"
             style="fill:#b4b4b4;fill-opacity:1;fill-rule:evenodd;stroke:#b4b4b4;stroke-width:1;stroke-linecap:square;stroke-linejoin:miter;stroke-miterlimit:4;stroke-opacity:1;stroke-dasharray:none;display:inline"
             id="path8781"
             inkscape:connector-curvature="0" />
          <path
             d="m 264.65485,281.35459 42.89855,17.76913 -0.006,-0.0147 -92.93563,-224.366079 50.04319,206.611699"
             style="fill:#b4b4b4;fill-opacity:1;fill-rule:evenodd;stroke:#b4b4b4;stroke-width:1;stroke-linecap:square;stroke-linejoin:miter;stroke-miterlimit:4;stroke-opacity:1;stroke-dasharray:none;display:inline"
             id="path8795"
             inkscape:connector-curvature="0" />
          <path
             d="m 290.16694,342.94616 17.76913,-42.89855 -0.0147,0.006 -224.36608,92.93563 206.6117,-50.04319"
             style="fill:#b4b4b4;fill-opacity:1;fill-rule:evenodd;stroke:#b4b4b4;stroke-width:1;stroke-linecap:square;stroke-linejoin:miter;stroke-miterlimit:4;stroke-opacity:1;stroke-dasharray:none;display:inline"
             id="path1399"
             inkscape:connector-curvature="0" />
          <path
             d="m 351.75849,317.43428 -42.89855,-17.76913 0.006,0.0147 92.93563,224.36608 -50.04319,-206.6117"
             style="fill:#b4b4b4;fill-opacity:1;fill-rule:evenodd;stroke:#b4b4b4;stroke-width:1;stroke-linecap:square;stroke-linejoin:miter;stroke-miterlimit:4;stroke-opacity:1;stroke-dasharray:none;display:inline"
             id="path1407"
             inkscape:connector-curvature="0" />
        </g>
      </g>
      <g
         transform="matrix(0.491446,-0.491446,0.483458,0.483458,11.99521,306.1165)"
         id="g2377"
         style="display:inline">
        <path
           id="path2379"
           style="fill:#c2c2c2;fill-opacity:1;fill-rule:evenodd;stroke:#c2c2c2;stroke-width:1.0000006;stroke-linecap:square;stroke-linejoin:miter;stroke-miterlimit:4;stroke-opacity:1;stroke-dasharray:none;display:inline"
           d="m 264.65488,281.35479 42.89855,17.76913 -0.0148,0.006 L 83.172594,392.06566 264.65488,281.35479"
           inkscape:connector-curvature="0" />
        <path
           id="path2381"
           style="fill:#999999;fill-opacity:1;fill-rule:evenodd;stroke:#999999;stroke-width:1.0000006;stroke-linecap:square;stroke-linejoin:miter;stroke-miterlimit:4;stroke-opacity:1;stroke-dasharray:none;display:inline"
           d="m 290.16697,342.94635 17.76913,-42.89855 -0.0147,0.006 -224.366079,92.93563 206.611699,-50.04319"
           inkscape:connector-curvature="0" />
        <path
           id="path2383"
           style="fill:#e1e1e1;fill-opacity:1;fill-rule:evenodd;stroke:#c2c2c2;stroke-width:1.0000006;stroke-linecap:square;stroke-linejoin:miter;stroke-miterlimit:4;stroke-opacity:1;stroke-dasharray:none;display:inline"
           d="m 351.75849,317.43427 -42.89855,-17.76913 0.0148,-0.006 224.36608,-92.93563 -181.48229,110.71087"
           inkscape:connector-curvature="0" />
        <path
           id="path2385"
           style="fill:#c2c2c2;fill-opacity:1;fill-rule:evenodd;stroke:#c2c2c2;stroke-width:1.0000006;stroke-linecap:square;stroke-linejoin:miter;stroke-miterlimit:4;stroke-opacity:1;stroke-dasharray:none;display:inline"
           d="m 290.16693,342.94611 17.76913,-42.89855 0.006,0.0148 L 400.8778,524.4284 290.16693,342.94611"
           inkscape:connector-curvature="0" />
        <path
           id="path2387"
           style="fill:#999999;fill-opacity:1;fill-rule:evenodd;stroke:#999999;stroke-width:1.0000006;stroke-linecap:square;stroke-linejoin:miter;stroke-miterlimit:4;stroke-opacity:1;stroke-dasharray:none;display:inline"
           d="m 351.75849,317.43402 -42.89855,-17.76913 0.006,0.0147 92.93563,224.36608 -50.04319,-206.6117"
           inkscape:connector-curvature="0" />
        <path
           id="path2389"
           style="fill:#e1e1e1;fill-opacity:1;fill-rule:evenodd;stroke:#c2c2c2;stroke-width:1.0000006;stroke-linecap:square;stroke-linejoin:miter;stroke-miterlimit:4;stroke-opacity:1;stroke-dasharray:none;display:inline"
           d="m 326.24641,255.8425 -17.76913,42.89855 -0.006,-0.0148 L 215.53554,74.360214 326.24641,255.8425"
           inkscape:connector-curvature="0" />
        <path
           id="path2391"
           style="fill:#e1e1e1;fill-opacity:1;fill-rule:evenodd;stroke:#c2c2c2;stroke-width:1.0000006;stroke-linecap:square;stroke-linejoin:miter;stroke-miterlimit:4;stroke-opacity:1;stroke-dasharray:none;display:inline"
           d="m 264.65485,281.3546 42.89855,17.76913 -0.0148,0.006 L 83.172563,392.06547 264.65485,281.3546"
           inkscape:connector-curvature="0" />
        <path
           id="path2393"
           style="fill:#e1e1e1;fill-opacity:1;fill-rule:evenodd;stroke:#c2c2c2;stroke-width:1.0000006;stroke-linecap:square;stroke-linejoin:miter;stroke-miterlimit:4;stroke-opacity:1;stroke-dasharray:none;display:inline"
           d="m 290.16693,342.94637 17.76913,-42.89855 0.006,0.0148 92.93563,224.36608 -110.71087,-181.48229"
           inkscape:connector-curvature="0" />
        <g
           id="g2395">
          <path
             d="m 326.2464,255.84271 -17.76913,42.89855 0.0148,-0.006 224.36608,-92.93563 -206.6117,50.04319"
             style="fill:#b4b4b4;fill-opacity:1;fill-rule:evenodd;stroke:#b4b4b4;stroke-width:1;stroke-linecap:square;stroke-linejoin:miter;stroke-miterlimit:4;stroke-opacity:1;stroke-dasharray:none;display:inline"
             id="path2397"
             inkscape:connector-curvature="0" />
          <path
             d="m 264.65485,281.35459 42.89855,17.76913 -0.006,-0.0147 -92.93563,-224.366079 50.04319,206.611699"
             style="fill:#b4b4b4;fill-opacity:1;fill-rule:evenodd;stroke:#b4b4b4;stroke-width:1;stroke-linecap:square;stroke-linejoin:miter;stroke-miterlimit:4;stroke-opacity:1;stroke-dasharray:none;display:inline"
             id="path2399"
             inkscape:connector-curvature="0" />
          <path
             d="m 290.16694,342.94616 17.76913,-42.89855 -0.0147,0.006 -224.36608,92.93563 206.6117,-50.04319"
             style="fill:#b4b4b4;fill-opacity:1;fill-rule:evenodd;stroke:#b4b4b4;stroke-width:1;stroke-linecap:square;stroke-linejoin:miter;stroke-miterlimit:4;stroke-opacity:1;stroke-dasharray:none;display:inline"
             id="path2401"
             inkscape:connector-curvature="0" />
          <path
             d="m 351.75849,317.43428 -42.89855,-17.76913 0.006,0.0147 92.93563,224.36608 -50.04319,-206.6117"
             style="fill:#b4b4b4;fill-opacity:1;fill-rule:evenodd;stroke:#b4b4b4;stroke-width:1;stroke-linecap:square;stroke-linejoin:miter;stroke-miterlimit:4;stroke-opacity:1;stroke-dasharray:none;display:inline"
             id="path2403"
             inkscape:connector-curvature="0" />
        </g>
      </g>
      <g
         transform="translate(-55.8718,-38.60234)"
         id="g1536"
         style="display:inline">
        <path
           id="path1538"
           style="fill:#c2c2c2;fill-opacity:1;fill-rule:evenodd;stroke:#c2c2c2;stroke-width:1.00000036;stroke-linecap:square;stroke-linejoin:miter;stroke-miterlimit:4;stroke-opacity:1;stroke-dasharray:none;display:inline"
           d="m 316.93813,337.99683 46.43303,0 -0.0113,0.0113 -171.72235,171.72236 125.30062,-171.73365"
           inkscape:connector-curvature="0" />
        <path
           id="path1540"
           style="fill:#999999;fill-opacity:1;fill-rule:evenodd;stroke:#999999;stroke-width:1.00000036;stroke-linecap:square;stroke-linejoin:miter;stroke-miterlimit:4;stroke-opacity:1;stroke-dasharray:none;display:inline"
           d="m 364.07826,385.13697 0,-46.43303 -0.0113,0.0113 L 192.3446,510.4376 364.07825,385.13698"
           inkscape:connector-curvature="0" />
        <path
           id="path1542"
           style="fill:#c2c2c2;fill-opacity:1;fill-rule:evenodd;stroke:#c2c2c2;stroke-width:1.00000036;stroke-linecap:square;stroke-linejoin:miter;stroke-miterlimit:4;stroke-opacity:1;stroke-dasharray:none;display:inline"
           d="m 411.21837,337.99687 -46.43303,0 0.0113,-0.0113 171.72235,-171.72236 -125.30062,171.73365"
           inkscape:connector-curvature="0" />
        <path
           id="path1544"
           style="fill:#999999;fill-opacity:1;fill-rule:evenodd;stroke:#999999;stroke-width:1.00000036;stroke-linecap:square;stroke-linejoin:miter;stroke-miterlimit:4;stroke-opacity:1;stroke-dasharray:none;display:inline"
           d="m 364.07824,290.85673 0,46.43303 0.0113,-0.0113 L 535.8119,165.5561 364.07825,290.85672"
           inkscape:connector-curvature="0" />
        <path
           id="path1546"
           style="fill:#c2c2c2;fill-opacity:1;fill-rule:evenodd;stroke:#c2c2c2;stroke-width:1.00000036;stroke-linecap:square;stroke-linejoin:miter;stroke-miterlimit:4;stroke-opacity:1;stroke-dasharray:none;display:inline"
           d="m 364.07813,385.13677 0,-46.43303 0.0113,0.0113 171.72236,171.72235 -171.73365,-125.30062"
           inkscape:connector-curvature="0" />
        <path
           id="path1548"
           style="fill:#999999;fill-opacity:1;fill-rule:evenodd;stroke:#999999;stroke-width:1.00000036;stroke-linecap:square;stroke-linejoin:miter;stroke-miterlimit:4;stroke-opacity:1;stroke-dasharray:none;display:inline"
           d="m 411.21827,337.99664 -46.43303,0 0.0113,0.0113 L 536.5189,509.7303 411.21828,337.99665"
           inkscape:connector-curvature="0" />
        <path
           id="path1550"
           style="fill:#c2c2c2;fill-opacity:1;fill-rule:evenodd;stroke:#c2c2c2;stroke-width:1.00000036;stroke-linecap:square;stroke-linejoin:miter;stroke-miterlimit:4;stroke-opacity:1;stroke-dasharray:none;display:inline"
           d="m 364.07817,290.85653 0,46.43303 -0.0113,-0.0113 -171.72236,-171.72235 171.73365,125.30062"
           inkscape:connector-curvature="0" />
        <path
           id="path1552"
           style="fill:#999999;fill-opacity:1;fill-rule:evenodd;stroke:#999999;stroke-width:1.00000036;stroke-linecap:square;stroke-linejoin:miter;stroke-miterlimit:4;stroke-opacity:1;stroke-dasharray:none;display:inline"
           d="m 316.93803,337.99666 46.43303,0 -0.0113,-0.0113 L 191.6374,166.263 316.93802,337.99665"
           inkscape:connector-curvature="0" />
      </g>
      <g
         id="g11797"
         transform="translate(-56.88765,-38.38015)"
         style="display:inline">
        <path
           id="path2122"
           style="fill:#ffffff;fill-opacity:1;fill-rule:evenodd;stroke:#000000;stroke-width:1;stroke-linecap:square;stroke-linejoin:miter;stroke-miterlimit:4;stroke-opacity:1;stroke-dasharray:none;display:inline"
           d="m 330.74501,304.6637 32.8331,32.8331 -0.016,0 -242.85201,0 210.03488,-32.8331"
           inkscape:connector-curvature="0" />
        <path
           id="path5805"
           style="fill:#000000;fill-opacity:1;fill-rule:evenodd;stroke:#000000;stroke-width:1;stroke-linecap:square;stroke-linejoin:miter;stroke-miterlimit:4;stroke-opacity:1;stroke-dasharray:none;display:inline"
           d="m 330.74501,371.3299 32.8331,-32.8331 -0.016,0 -242.85201,0 210.03488,32.8331"
           inkscape:connector-curvature="0" />
        <path
           id="path8724"
           style="fill:#ffffff;fill-opacity:1;fill-rule:evenodd;stroke:#000000;stroke-width:1;stroke-linecap:square;stroke-linejoin:miter;stroke-miterlimit:4;stroke-opacity:1;stroke-dasharray:none;display:inline"
           d="m 397.41118,371.32995 -32.8331,-32.8331 0.016,0 242.85201,0 -210.03488,32.8331"
           inkscape:connector-curvature="0" />
        <path
           id="path8726"
           style="fill:#000000;fill-opacity:1;fill-rule:evenodd;stroke:#000000;stroke-width:1;stroke-linecap:square;stroke-linejoin:miter;stroke-miterlimit:4;stroke-opacity:1;stroke-dasharray:none;display:inline"
           d="m 397.41118,304.66375 -32.8331,32.8331 0.016,0 242.85201,0 -210.03488,-32.8331"
           inkscape:connector-curvature="0" />
        <path
           id="path8740"
           style="fill:#ffffff;fill-opacity:1;fill-rule:evenodd;stroke:#000000;stroke-width:1;stroke-linecap:square;stroke-linejoin:miter;stroke-miterlimit:4;stroke-opacity:1;stroke-dasharray:none;display:inline"
           d="m 330.74499,371.32988 32.8331,-32.8331 0,0.016 0,242.85201 -32.8331,-210.03488"
           inkscape:connector-curvature="0" />
        <path
           id="path8742"
           style="fill:#000000;fill-opacity:1;fill-rule:evenodd;stroke:#000000;stroke-width:1;stroke-linecap:square;stroke-linejoin:miter;stroke-miterlimit:4;stroke-opacity:1;stroke-dasharray:none;display:inline"
           d="m 397.41119,371.32988 -32.8331,-32.8331 0,0.016 0,242.85201 32.8331,-210.03488"
           inkscape:connector-curvature="0" />
        <path
           id="path8746"
           style="fill:#ffffff;fill-opacity:1;fill-rule:evenodd;stroke:#000000;stroke-width:1;stroke-linecap:square;stroke-linejoin:miter;stroke-miterlimit:4;stroke-opacity:1;stroke-dasharray:none;display:inline"
           d="m 397.41115,304.66372 -32.8331,32.8331 0,-0.016 0,-242.85201 32.8331,210.03488"
           inkscape:connector-curvature="0" />
        <path
           id="path8748"
           style="fill:#000000;fill-opacity:1;fill-rule:evenodd;stroke:#000000;stroke-width:1;stroke-linecap:square;stroke-linejoin:miter;stroke-miterlimit:4;stroke-opacity:1;stroke-dasharray:none;display:inline"
           d="m 330.74495,304.66372 32.8331,32.8331 0,-0.016 0,-242.85201 -32.8331,210.03488"
           inkscape:connector-curvature="0" />
      </g>
      <g
         id="g1561">
        <path
           d="m 294.12404,12.387486 8.39843,0 10.60547,20 0,-20 7.12891,0 0,29.160156 -8.39844,0 -10.60547,-20 0,20 -7.1289,0 0,-29.160156"
           style="font-size:40px;font-style:normal;font-variant:normal;font-weight:bold;font-stretch:normal;text-align:start;line-height:125%;writing-mode:lr-tb;text-anchor:start;fill:#000000;fill-opacity:1;stroke:none;font-family:Bitstream Vera Sans"
           id="path1476"
           inkscape:connector-curvature="0" />
        <path
           d="m 572.23012,285.03658 20.29297,0 0,5.68359 -12.77344,0 0,5.42968 12.01172,0 0,5.6836 -12.01172,0 0,6.67969 13.20312,0 0,5.68359 -20.72265,0 0,-29.16015"
           style="font-size:40px;font-style:normal;font-variant:normal;font-weight:bold;font-stretch:normal;text-align:start;line-height:125%;writing-mode:lr-tb;text-anchor:start;fill:#000000;fill-opacity:1;stroke:none;display:inline;font-family:Bitstream Vera Sans"
           id="path1478"
           inkscape:connector-curvature="0" />
        <path
           d="m 9,285.03658 7.207031,0 5.039063,21.1914 5,-21.1914 7.246093,0 5,21.1914 5.039066,-21.1914 7.148434,0 -6.875004,29.16015 -8.671871,0 -5.292968,-22.16798 -5.234375,22.16798 -8.671875,0 L 9,285.03658"
           style="font-size:40px;font-style:normal;font-variant:normal;font-weight:bold;font-stretch:normal;text-align:start;line-height:125%;writing-mode:lr-tb;text-anchor:start;fill:#000000;fill-opacity:1;stroke:none;display:inline;font-family:Bitstream Vera Sans"
           id="path1480"
           inkscape:connector-curvature="0" />
        <path
           d="m 316.7803,560.1914 0,6.17188 c -1.6016,-0.71612 -3.1641,-1.25649 -4.68751,-1.6211 -1.52346,-0.36455 -2.96226,-0.54685 -4.3164,-0.54687 -1.7969,2e-5 -3.12502,0.24742 -3.98438,0.74219 -0.85938,0.49481 -1.28908,1.26304 -1.28906,2.30468 -2e-5,0.78128 0.28646,1.39325 0.85936,1.83594 0.58593,0.42971 1.64062,0.8008 3.16408,1.11328 l 3.20311,0.64453 c 3.24218,0.65106 5.54687,1.64065 6.91407,2.96875 1.36717,1.32814 2.05076,3.21616 2.05078,5.66407 -2e-5,3.21615 -0.95704,5.61198 -2.8711,7.1875 -1.90105,1.5625 -4.8112,2.34375 -8.73046,2.34375 -1.84898,0 -3.70444,-0.17578 -5.5664,-0.52735 -1.86199,-0.35156 -3.72397,-0.87239 -5.58594,-1.5625 l 0,-6.34765 c 1.86197,0.98959 3.65884,1.73828 5.39062,2.24609 1.74479,0.4948 3.42447,0.74219 5.03906,0.74219 1.64062,0 2.89712,-0.27343 3.76953,-0.82031 0.87239,-0.54687 1.30857,-1.32812 1.30859,-2.34375 -2e-5,-0.91145 -0.29949,-1.61458 -0.89844,-2.10938 -0.58594,-0.49478 -1.76431,-0.93749 -3.53515,-1.32812 l -2.91016,-0.64454 c -2.91666,-0.62498 -5.05209,-1.62108 -6.40625,-2.98828 -1.34114,-1.36717 -2.01172,-3.20961 -2.01172,-5.52734 0,-2.90362 0.9375,-5.13669 2.81251,-6.69922 1.875,-1.56247 4.57029,-2.34372 8.08593,-2.34375 1.60155,3e-5 3.24868,0.12373 4.94142,0.37109 1.69268,0.23441 3.444,0.59248 5.25391,1.07422"
           style="font-size:40px;font-style:normal;font-variant:normal;font-weight:bold;font-stretch:normal;text-align:start;line-height:125%;writing-mode:lr-tb;text-anchor:start;fill:#000000;fill-opacity:1;stroke:none;display:inline;font-family:Bitstream Vera Sans"
           id="path1482"
           inkscape:connector-curvature="0" />
        <path
           id="path1484"
           d="m 193.55762,123.87793 3.77929,0 3.00586,9.08789 1.76661,-9.08789 3.19921,0 -2.55761,13.12207 -3.7793,0 -3.00586,-9.08789 L 194.20801,137 191,137 l 2.55762,-13.12207 m 15.08203,0 3.7793,0 3.00585,9.08789 1.76661,-9.08789 3.19922,0 -2.55762,13.12207 -3.7793,0 -3.00586,-9.08789 -1.75781,9.08789 -3.20801,0 2.55762,-13.12207 m 14.07129,0 3.1289,0 0.4043,9.53613 4.12207,-9.53613 3.2168,0 0.43066,9.53613 3.98145,-9.53613 3.36621,0 -5.65137,13.12207 -3.83203,0 -0.43945,-9.97559 -4.24512,9.97559 -3.91992,0 -0.5625,-13.12207"
           style="font-size:18px;font-style:oblique;font-variant:normal;font-weight:bold;font-stretch:normal;text-align:start;line-height:100%;writing-mode:lr-tb;text-anchor:start;fill:#000000;fill-opacity:1;stroke:none;display:inline;font-family:Bitstream Vera Sans"
           inkscape:connector-curvature="0" />
        <path
           id="path1486"
           d="m 381.55762,123.87793 3.7793,0 3.00586,9.08789 1.7666,-9.08789 3.19922,0 -2.55762,13.12207 -3.7793,0 -3.00586,-9.08789 L 382.20801,137 379,137 l 2.55762,-13.12207 m 15.08203,0 3.7793,0 3.00586,9.08789 1.7666,-9.08789 3.19922,0 -2.55762,13.12207 -3.7793,0 -3.00585,-9.08789 -1.75782,9.08789 -3.20801,0 2.55762,-13.12207 m 15.08203,0 9.12305,0 -0.50098,2.55762 -5.73925,0 -0.47461,2.44336 5.40527,0 -0.50977,2.55761 -5.39648,0 -0.58008,3.00586 5.92383,0 -0.4834,2.55762 -9.32519,0 2.55761,-13.12207"
           style="font-size:18px;font-style:oblique;font-variant:normal;font-weight:bold;font-stretch:normal;text-align:start;line-height:100%;writing-mode:lr-tb;text-anchor:start;fill:#000000;fill-opacity:1;stroke:none;display:inline;font-family:Bitstream Vera Sans"
           inkscape:connector-curvature="0" />
        <path
           id="path1488"
           d="m 471.49023,215 9.12305,0 -0.50098,2.55762 -5.73926,0 -0.47461,2.44336 5.40528,0 -0.50977,2.55761 -5.39648,0 -0.58008,3.00586 5.92383,0 -0.4834,2.55762 -9.3252,0 L 471.49023,215 m 12.30469,0 3.77929,0 3.00586,9.08789 1.76661,-9.08789 3.19921,0 -2.55761,13.12207 -3.7793,0 -3.00586,-9.08789 -1.75781,9.08789 -3.20801,0 L 483.79492,215 m 15.08203,0 9.12305,0 -0.50098,2.55762 -5.73926,0 -0.47461,2.44336 5.40528,0 -0.50977,2.55761 -5.39648,0 -0.58008,3.00586 5.92383,0 -0.4834,2.55762 -9.3252,0 L 498.87695,215"
           style="font-size:18px;font-style:oblique;font-variant:normal;font-weight:bold;font-stretch:normal;text-align:start;line-height:100%;writing-mode:lr-tb;text-anchor:start;fill:#000000;fill-opacity:1;stroke:none;display:inline;font-family:Bitstream Vera Sans"
           inkscape:connector-curvature="0" />
        <path
           id="path1490"
           d="m 472.54492,369.2373 9.12304,0 -0.50097,2.55762 -5.73926,0 -0.47461,2.44336 5.40527,0 -0.50976,2.55762 -5.39649,0 -0.58007,3.00586 5.92382,0 -0.48339,2.55762 -9.3252,0 2.55762,-13.12208 m 21.33984,0.41309 -0.54492,2.77734 c -0.66212,-0.32811 -1.31544,-0.57127 -1.95996,-0.72949 -0.64454,-0.16405 -1.27442,-0.24608 -1.88965,-0.24609 -0.84376,10e-6 -1.50294,0.13185 -1.97754,0.39551 -0.46875,0.26368 -0.70313,0.62989 -0.70312,1.09863 -1e-5,0.29884 0.10253,0.53321 0.30761,0.70312 0.21094,0.16408 0.6416,0.32521 1.292,0.4834 l 1.38867,0.34278 c 1.16014,0.29297 2.00975,0.71778 2.54883,1.27441 0.54491,0.55079 0.81737,1.26563 0.81738,2.14453 -1e-5,1.42383 -0.542,2.56641 -1.62598,3.42774 -1.07813,0.86132 -2.52833,1.29199 -4.35058,1.29199 -0.84962,0 -1.6963,-0.0791 -2.54004,-0.23731 -0.8379,-0.1582 -1.65821,-0.39257 -2.46094,-0.70312 l 0.53613,-2.85645 c 0.7793,0.45118 1.53516,0.78809 2.26758,1.01075 0.73828,0.22265 1.46484,0.33398 2.17969,0.33398 0.77343,0 1.40038,-0.1582 1.88086,-0.47461 0.48632,-0.3164 0.72948,-0.7207 0.72949,-1.21289 -10e-6,-0.32226 -0.10841,-0.57129 -0.3252,-0.74707 -0.2168,-0.18164 -0.69141,-0.36621 -1.42382,-0.55371 l -1.37989,-0.34278 c -1.01953,-0.25194 -1.77832,-0.65038 -2.27636,-1.19531 -0.49805,-0.54491 -0.74708,-1.25097 -0.74707,-2.11816 -10e-6,-1.36523 0.52148,-2.458 1.56445,-3.27832 1.04882,-0.82616 2.458,-1.23925 4.22754,-1.23926 0.70897,10e-6 1.43554,0.0557 2.17969,0.16699 0.74998,0.10548 1.5117,0.26662 2.28515,0.4834 m 3.9375,-0.41309 9.12305,0 -0.50098,2.55762 -5.73926,0 -0.47461,2.44336 5.40528,0 -0.50977,2.55762 -5.39648,0 -0.58008,3.00586 5.92383,0 -0.4834,2.55762 -9.3252,0 2.55762,-13.12208"
           style="font-size:18px;font-style:oblique;font-variant:normal;font-weight:bold;font-stretch:normal;text-align:start;line-height:100%;writing-mode:lr-tb;text-anchor:start;fill:#000000;fill-opacity:1;stroke:none;display:inline;font-family:Bitstream Vera Sans"
           inkscape:connector-curvature="0" />
        <path
           id="path1492"
           d="m 392.75489,463.59164 -0.54493,2.77734 c -0.66212,-0.32811 -1.31544,-0.57127 -1.95996,-0.72949 -0.64454,-0.16405 -1.27442,-0.24608 -1.88964,-0.24609 -0.84376,1e-5 -1.50294,0.13185 -1.97754,0.39551 -0.46876,0.26368 -0.70313,0.62989 -0.70313,1.09863 0,0.29884 0.10254,0.53321 0.30762,0.70312 0.21093,0.16408 0.64159,0.32521 1.29199,0.4834 l 1.38867,0.34278 c 1.16015,0.29297 2.00976,0.71778 2.54883,1.27441 0.54491,0.55079 0.81737,1.26563 0.81738,2.14453 -10e-6,1.42383 -0.542,2.56641 -1.62597,3.42774 -1.07814,0.86132 -2.52833,1.29199 -4.35059,1.29199 -0.84961,0 -1.69629,-0.0791 -2.54004,-0.23731 -0.83789,-0.1582 -1.6582,-0.39257 -2.46094,-0.70312 l 0.53614,-2.85645 c 0.77929,0.45118 1.53515,0.78809 2.26758,1.01075 0.73827,0.22265 1.46483,0.33398 2.17968,0.33398 0.77343,0 1.40039,-0.1582 1.88086,-0.47461 0.48632,-0.3164 0.72949,-0.7207 0.72949,-1.21289 0,-0.32226 -0.1084,-0.57129 -0.32519,-0.74707 -0.21681,-0.18164 -0.69141,-0.36621 -1.42383,-0.55371 l -1.37988,-0.34278 c -1.01954,-0.25194 -1.77833,-0.65038 -2.27637,-1.19531 -0.49805,-0.54491 -0.74707,-1.25097 -0.74707,-2.11816 0,-1.36523 0.52148,-2.458 1.56445,-3.27832 1.04883,-0.82616 2.45801,-1.23925 4.22754,-1.23926 0.70898,10e-6 1.43554,0.0557 2.17969,0.16699 0.74999,0.10548 1.51171,0.26662 2.28516,0.4834 m 12.97265,0 -0.54492,2.77734 c -0.66212,-0.32811 -1.31544,-0.57127 -1.95996,-0.72949 -0.64454,-0.16405 -1.27442,-0.24608 -1.88965,-0.24609 -0.84376,1e-5 -1.50293,0.13185 -1.97754,0.39551 -0.46875,0.26368 -0.70313,0.62989 -0.70312,1.09863 -1e-5,0.29884 0.10253,0.53321 0.30761,0.70312 0.21094,0.16408 0.6416,0.32521 1.292,0.4834 l 1.38867,0.34278 c 1.16015,0.29297 2.00975,0.71778 2.54883,1.27441 0.54491,0.55079 0.81737,1.26563 0.81738,2.14453 -1e-5,1.42383 -0.542,2.56641 -1.62598,3.42774 -1.07813,0.86132 -2.52832,1.29199 -4.35058,1.29199 -0.84962,0 -1.6963,-0.0791 -2.54004,-0.23731 -0.83789,-0.1582 -1.65821,-0.39257 -2.46094,-0.70312 l 0.53613,-2.85645 c 0.7793,0.45118 1.53516,0.78809 2.26758,1.01075 0.73828,0.22265 1.46484,0.33398 2.17969,0.33398 0.77343,0 1.40038,-0.1582 1.88086,-0.47461 0.48632,-0.3164 0.72948,-0.7207 0.72949,-1.21289 -10e-6,-0.32226 -0.10841,-0.57129 -0.32519,-0.74707 -0.21681,-0.18164 -0.69142,-0.36621 -1.42383,-0.55371 l -1.37989,-0.34278 c -1.01953,-0.25194 -1.77832,-0.65038 -2.27636,-1.19531 -0.49805,-0.54491 -0.74708,-1.25097 -0.74707,-2.11816 -10e-6,-1.36523 0.52148,-2.458 1.56445,-3.27832 1.04882,-0.82616 2.458,-1.23925 4.22754,-1.23926 0.70897,10e-6 1.43554,0.0557 2.17969,0.16699 0.74999,0.10548 1.5117,0.26662 2.28515,0.4834 m 3.9375,-0.41309 9.12305,0 -0.50098,2.55762 -5.73925,0 -0.47461,2.44336 5.40527,0 -0.50977,2.55762 -5.39648,0 -0.58008,3.00586 5.92383,0 -0.4834,2.55762 -9.32519,0 2.55761,-13.12208"
           style="font-size:18px;font-style:oblique;font-variant:normal;font-weight:bold;font-stretch:normal;text-align:start;line-height:100%;writing-mode:lr-tb;text-anchor:start;fill:#000000;fill-opacity:1;stroke:none;display:inline;font-family:Bitstream Vera Sans"
           inkscape:connector-curvature="0" />
        <path
           id="path1494"
           d="m 204.75488,463.59164 -0.54492,2.77734 c -0.66212,-0.32811 -1.31544,-0.57127 -1.95996,-0.72949 -0.64454,-0.16405 -1.27442,-0.24608 -1.88965,-0.24609 -0.84376,1e-5 -1.50293,0.13185 -1.97754,0.39551 -0.46875,0.26368 -0.70313,0.62989 -0.70312,1.09863 -1e-5,0.29884 0.10253,0.53321 0.30761,0.70312 0.21094,0.16408 0.6416,0.32521 1.292,0.4834 l 1.38867,0.34278 c 1.16015,0.29297 2.00975,0.71778 2.54883,1.27441 0.54491,0.55079 0.81737,1.26563 0.81738,2.14453 -1e-5,1.42383 -0.542,2.56641 -1.62598,3.42774 -1.07813,0.86132 -2.52832,1.29199 -4.35058,1.29199 -0.84962,0 -1.6963,-0.0791 -2.54004,-0.23731 -0.83789,-0.1582 -1.65821,-0.39257 -2.46094,-0.70312 l 0.53613,-2.85645 c 0.7793,0.45118 1.53516,0.78809 2.26758,1.01075 0.73828,0.22265 1.46484,0.33398 2.17969,0.33398 0.77343,0 1.40038,-0.1582 1.88086,-0.47461 0.48632,-0.3164 0.72948,-0.7207 0.72949,-1.21289 -10e-6,-0.32226 -0.10841,-0.57129 -0.32519,-0.74707 -0.21681,-0.18164 -0.69142,-0.36621 -1.42383,-0.55371 l -1.37989,-0.34278 c -1.01953,-0.25194 -1.77832,-0.65038 -2.27636,-1.19531 -0.49805,-0.54491 -0.74707,-1.25097 -0.74707,-2.11816 0,-1.36523 0.52148,-2.458 1.56445,-3.27832 1.04882,-0.82616 2.458,-1.23925 4.22754,-1.23926 0.70898,10e-6 1.43554,0.0557 2.17969,0.16699 0.74999,0.10548 1.5117,0.26662 2.28515,0.4834 m 12.97266,0 -0.54492,2.77734 c -0.66212,-0.32811 -1.31544,-0.57127 -1.95996,-0.72949 -0.64454,-0.16405 -1.27443,-0.24608 -1.88965,-0.24609 -0.84376,1e-5 -1.50294,0.13185 -1.97754,0.39551 -0.46876,0.26368 -0.70313,0.62989 -0.70313,1.09863 0,0.29884 0.10254,0.53321 0.30762,0.70312 0.21093,0.16408 0.6416,0.32521 1.29199,0.4834 l 1.38868,0.34278 c 1.16014,0.29297 2.00975,0.71778 2.54882,1.27441 0.54491,0.55079 0.81737,1.26563 0.81739,2.14453 -2e-5,1.42383 -0.54201,2.56641 -1.62598,3.42774 -1.07813,0.86132 -2.52833,1.29199 -4.35059,1.29199 -0.84961,0 -1.69629,-0.0791 -2.54004,-0.23731 -0.83789,-0.1582 -1.6582,-0.39257 -2.46093,-0.70312 l 0.53613,-2.85645 c 0.77929,0.45118 1.53515,0.78809 2.26758,1.01075 0.73828,0.22265 1.46484,0.33398 2.17969,0.33398 0.77343,0 1.40038,-0.1582 1.88085,-0.47461 0.48633,-0.3164 0.72949,-0.7207 0.7295,-1.21289 -1e-5,-0.32226 -0.10841,-0.57129 -0.3252,-0.74707 -0.2168,-0.18164 -0.69141,-0.36621 -1.42383,-0.55371 l -1.37988,-0.34278 c -1.01953,-0.25194 -1.77832,-0.65038 -2.27637,-1.19531 -0.49805,-0.54491 -0.74707,-1.25097 -0.74707,-2.11816 0,-1.36523 0.52149,-2.458 1.56446,-3.27832 1.04882,-0.82616 2.458,-1.23925 4.22754,-1.23926 0.70897,10e-6 1.43553,0.0557 2.17968,0.16699 0.74999,0.10548 1.51171,0.26662 2.28516,0.4834 m 2.92676,-0.41309 3.1289,0 0.4043,9.53614 4.12207,-9.53614 3.2168,0 0.43066,9.53614 3.98145,-9.53614 3.36621,0 -5.65137,13.12208 -3.83203,0 -0.43945,-9.97559 -4.24512,9.97559 -3.91992,0 -0.5625,-13.12208"
           style="font-size:18px;font-style:oblique;font-variant:normal;font-weight:bold;font-stretch:normal;text-align:start;line-height:100%;writing-mode:lr-tb;text-anchor:start;fill:#000000;fill-opacity:1;stroke:none;display:inline;font-family:Bitstream Vera Sans"
           inkscape:connector-curvature="0" />
        <path
           id="path1496"
           d="m 92.513665,369.2373 3.128906,0 0.404297,9.53614 4.122072,-9.53614 3.2168,0 0.43066,9.53614 3.98145,-9.53614 3.36621,0 -5.65137,13.12208 -3.83203,0 -0.43945,-9.97559 -4.245124,9.97559 -3.919921,0 -0.5625,-13.12208 m 29.909185,0.41309 -0.54492,2.77734 c -0.66212,-0.32811 -1.31544,-0.57127 -1.95997,-0.72949 -0.64454,-0.16405 -1.27442,-0.24608 -1.88964,-0.24609 -0.84376,10e-6 -1.50294,0.13185 -1.97754,0.39551 -0.46876,0.26368 -0.70313,0.62989 -0.70313,1.09863 0,0.29884 0.10254,0.53321 0.30762,0.70312 0.21093,0.16408 0.64159,0.32521 1.29199,0.4834 l 1.38867,0.34278 c 1.16015,0.29297 2.00976,0.71778 2.54883,1.27441 0.54491,0.55079 0.81737,1.26563 0.81738,2.14453 -1e-5,1.42383 -0.542,2.56641 -1.62597,3.42774 -1.07814,0.86132 -2.52833,1.29199 -4.35059,1.29199 -0.84961,0 -1.69629,-0.0791 -2.54004,-0.23731 -0.83789,-0.1582 -1.6582,-0.39257 -2.46093,-0.70312 l 0.53613,-2.85645 c 0.77929,0.45118 1.53515,0.78809 2.26758,1.01075 0.73827,0.22265 1.46484,0.33398 2.17968,0.33398 0.77343,0 1.40039,-0.1582 1.88086,-0.47461 0.48632,-0.3164 0.72949,-0.7207 0.7295,-1.21289 -1e-5,-0.32226 -0.10841,-0.57129 -0.3252,-0.74707 -0.2168,-0.18164 -0.69141,-0.36621 -1.42383,-0.55371 l -1.37988,-0.34278 c -1.01954,-0.25194 -1.77832,-0.65038 -2.27637,-1.19531 -0.49805,-0.54491 -0.74707,-1.25097 -0.74707,-2.11816 0,-1.36523 0.52148,-2.458 1.56445,-3.27832 1.04883,-0.82616 2.45801,-1.23925 4.22754,-1.23926 0.70898,10e-6 1.43554,0.0557 2.17969,0.16699 0.74999,0.10548 1.51171,0.26662 2.28516,0.4834 m 2.92676,-0.41309 3.1289,0 0.4043,9.53614 4.12207,-9.53614 3.2168,0 0.43066,9.53614 3.98144,-9.53614 3.36622,0 -5.65137,13.12208 -3.83203,0 -0.43946,-9.97559 -4.24511,9.97559 -3.91992,0 -0.5625,-13.12208"
           style="font-size:18px;font-style:oblique;font-variant:normal;font-weight:bold;font-stretch:normal;text-align:start;line-height:100%;writing-mode:lr-tb;text-anchor:start;fill:#000000;fill-opacity:1;stroke:none;display:inline;font-family:Bitstream Vera Sans"
           inkscape:connector-curvature="0" />
        <path
           id="path1498"
           d="m 91.458981,215 3.128906,0 0.404297,9.53613 4.12207,-9.53613 3.216796,0 0.43066,9.53613 3.98145,-9.53613 3.36621,0 -5.65137,13.12207 -3.83203,0 -0.43945,-9.97559 -4.245117,9.97559 -3.919922,0 L 91.458981,215 m 20.874019,0 3.7793,0 3.00586,9.08789 1.7666,-9.08789 3.19922,0 -2.55762,13.12207 -3.77929,0 -3.00586,-9.08789 -1.75782,9.08789 -3.208,0 L 112.333,215 m 14.07129,0 3.12891,0 0.4043,9.53613 4.12207,-9.53613 3.21679,0 0.43067,9.53613 3.98144,-9.53613 3.36621,0 -5.65136,13.12207 -3.83204,0 -0.43945,-9.97559 -4.24512,9.97559 -3.91992,0 L 126.40429,215"
           style="font-size:18px;font-style:oblique;font-variant:normal;font-weight:bold;font-stretch:normal;text-align:start;line-height:100%;writing-mode:lr-tb;text-anchor:start;fill:#000000;fill-opacity:1;stroke:none;display:inline;font-family:Bitstream Vera Sans"
           inkscape:connector-curvature="0" />
        <path
           id="text1435"
           d="m 497.83855,478.65609 0,3.70313 c -0.96095,-0.42968 -1.89845,-0.75389 -2.8125,-0.97266 -0.91407,-0.21873 -1.77735,-0.32811 -2.58984,-0.32812 -1.07814,10e-6 -1.87501,0.14845 -2.39063,0.44531 -0.51563,0.29689 -0.77344,0.75783 -0.77344,1.38281 0,0.46876 0.17187,0.83595 0.51563,1.10157 0.35155,0.25782 0.98437,0.48047 1.89844,0.66796 l 1.92187,0.38672 c 1.9453,0.39064 3.32811,0.98439 4.14844,1.78125 0.8203,0.79689 1.23045,1.9297 1.23047,3.39844 -2e-5,1.92969 -0.57424,3.36719 -1.72266,4.3125 -1.14064,0.9375 -2.88673,1.40625 -5.23828,1.40625 -1.10938,0 -2.22266,-0.10547 -3.33984,-0.31641 -1.1172,-0.21093 -2.23438,-0.52343 -3.35157,-0.9375 l 0,-3.80859 c 1.11719,0.59375 2.19531,1.04297 3.23438,1.34766 1.04687,0.29687 2.05468,0.44531 3.02344,0.44531 0.98436,0 1.73827,-0.16406 2.26172,-0.49219 0.52342,-0.32812 0.78514,-0.79687 0.78515,-1.40625 -10e-6,-0.54687 -0.1797,-0.96874 -0.53906,-1.26562 -0.35157,-0.29687 -1.0586,-0.5625 -2.12109,-0.79688 l -1.7461,-0.38672 c -1.75,-0.37499 -3.03125,-0.97265 -3.84375,-1.79297 -0.80469,-0.8203 -1.20703,-1.92577 -1.20703,-3.3164 0,-1.74218 0.5625,-3.08202 1.6875,-4.01953 1.125,-0.93749 2.74218,-1.40624 4.85156,-1.40625 0.96093,1e-5 1.94921,0.0742 2.96485,0.22265 1.01561,0.14064 2.06639,0.35549 3.15234,0.64453 m 5.12109,-0.55078 12.17579,0 0,3.41016 -7.66407,0 0,3.25781 7.20703,0 0,3.41016 -7.20703,0 0,4.00781 7.92188,0 0,3.41016 -12.4336,0 0,-17.4961"
           style="font-size:12px;font-style:normal;font-weight:normal;line-height:125%;fill:#000000;fill-opacity:1;stroke:none;font-family:Bitstream Vera Sans"
           inkscape:connector-curvature="0" />
        <path
           id="text1439"
           d="m 484.01629,100.44516 5.03907,0 6.36327,12 0,-12 4.27735,0 0,17.49609 -5.03906,0 -6.36328,-12 0,12 -4.27735,0 0,-17.49609 m 20.10938,0 12.17578,0 0,3.41015 -7.66406,0 0,3.25782 7.20702,0 0,3.41015 -7.20702,0 0,4.00781 7.92186,0 0,3.41016 -12.43358,0 0,-17.49609"
           style="font-size:12px;font-style:normal;font-weight:normal;line-height:125%;fill:#000000;fill-opacity:1;stroke:none;display:inline;font-family:Bitstream Vera Sans"
           inkscape:connector-curvature="0" />
        <path
           id="text1443"
           d="m 103.83855,478.65609 0,3.70313 c -0.96095,-0.42968 -1.89845,-0.75389 -2.8125,-0.97266 -0.91408,-0.21873 -1.777357,-0.32811 -2.589847,-0.32812 -1.078133,10e-6 -1.875007,0.14845 -2.390625,0.44531 -0.515631,0.29689 -0.773443,0.75783 -0.773437,1.38281 -6e-6,0.46876 0.171869,0.83595 0.515625,1.10157 0.351556,0.25782 0.984367,0.48047 1.898437,0.66796 l 1.921875,0.38672 c 1.945302,0.39064 3.328112,0.98439 4.148442,1.78125 0.8203,0.79689 1.23045,1.9297 1.23047,3.39844 -2e-5,1.92969 -0.57424,3.36719 -1.72266,4.3125 -1.14064,0.9375 -2.88673,1.40625 -5.238283,1.40625 -1.109382,0 -2.222663,-0.10547 -3.339844,-0.31641 -1.117191,-0.21093 -2.234378,-0.52343 -3.351562,-0.9375 l 0,-3.80859 c 1.117184,0.59375 2.195308,1.04297 3.234375,1.34766 1.046869,0.29687 2.05468,0.44531 3.023437,0.44531 0.984366,0 1.738272,-0.16406 2.261719,-0.49219 0.523428,-0.32812 0.785148,-0.79687 0.785158,-1.40625 -1e-5,-0.54687 -0.1797,-0.96874 -0.53906,-1.26562 -0.351577,-0.29687 -1.058608,-0.5625 -2.121098,-0.79688 l -1.746094,-0.38672 c -1.750005,-0.37499 -3.031253,-0.97265 -3.84375,-1.79297 -0.804689,-0.8203 -1.207033,-1.92577 -1.207031,-3.3164 -2e-6,-1.74218 0.562498,-3.08202 1.6875,-4.01953 1.124995,-0.93749 2.742181,-1.40624 4.851563,-1.40625 0.960928,1e-5 1.949208,0.0742 2.96484,0.22265 1.01562,0.14064 2.0664,0.35549 3.15235,0.64453 m 3.63281,-0.55078 4.32422,0 3.02344,12.71485 3,-12.71485 4.34766,0 3,12.71485 3.02343,-12.71485 4.28907,0 -4.125,17.4961 -5.20313,0 -3.17578,-13.30078 -3.14063,13.30078 -5.20312,0 -4.16016,-17.4961"
           style="font-size:12px;font-style:normal;font-weight:normal;line-height:125%;fill:#000000;fill-opacity:1;stroke:none;display:inline;font-family:Bitstream Vera Sans"
           inkscape:connector-curvature="0" />
        <path
           id="text1447"
           d="m 90.016281,100.44516 5.039063,0 6.363286,12 0,-12 4.27734,0 0,17.49609 -5.03906,0 -6.363285,-12 0,12 -4.277344,0 0,-17.49609 m 18.621099,0 4.32422,0 3.02343,12.71484 3,-12.71484 4.34766,0 3,12.71484 3.02344,-12.71484 4.28906,0 -4.125,17.49609 -5.20312,0 -3.17579,-13.30078 -3.14062,13.30078 -5.20313,0 -4.16015,-17.49609"
           style="font-size:12px;font-style:normal;font-weight:normal;line-height:125%;fill:#000000;fill-opacity:1;stroke:none;display:inline;font-family:Bitstream Vera Sans"
           inkscape:connector-curvature="0" />
      </g>
    </g>
  </g>
</svg>
